# xmcd
#
# Track frame offsets:
#	150
#	12625
#	31583
#	45787
#	54709
#	71036
#	84406
#	99449
#	114190
#	126447
#
# Disc length: 1863 seconds
#
# Revision: 1
# Processed by: cddbd v1.5.2PL0 Copyright (c) Steve Scherf et al.
# Submitted via: audiograbber 1.83.01
#
DISCID=7707450a
DTITLE=Pat Burns - Too Big To Fail
DYEAR=2010
DGENRE=Blues
TTITLE0=What The Hell (Is Too Big To Fail)
TTITLE1=Forever And A Day
TTITLE2=Old Fashioned Girl
TTITLE3=Behind The Eight Ball
TTITLE4=Part Time Love
TTITLE5=Hymn To Mary
TTITLE6=How About You
TTITLE7=I'll See You then
TTITLE8=Rose Elizabeth
TTITLE9=I'm Going Back (To The Railroad Track)
EXTD=
EXTT0=
EXTT1=
EXTT2=
EXTT3=
EXTT4=
EXTT5=
EXTT6=
EXTT7=
EXTT8=
EXTT9=
PLAYORDER=
